<svg xmlns="http://www.w3.org/2000/svg" version="1.1" viewBox="-5.0 -10.0 110.0 135.0">
    <path
        d="m50 17.949c-1.0039 0-1.8906 0.51172-2.7227 1.1797-0.83594 0.66406-1.6328 1.5156-2.4141 2.3828-1.5664 1.7422-3.1758 3.5117-4.1523 3.8672-0.98047 0.35547-3.3477 0.03125-5.6641-0.29297-1.1602-0.16406-2.3164-0.30469-3.3789-0.27734-1.0664 0.027344-2.082 0.20312-2.8516 0.84766-0.76953 0.64453-1.1172 1.6094-1.3281 2.6562-0.21094 1.0469-0.26953 2.2109-0.30859 3.3789-0.082032 2.3398-0.17969 4.7305-0.69922 5.6328-0.52344 0.90234-2.5469 2.1719-4.5312 3.4102-0.99219 0.62109-1.9727 1.2617-2.7734 1.9688-0.80078 0.70312-1.457 1.4844-1.6289 2.4727-0.17578 0.98828 0.17969 1.957 0.6875 2.8945 0.51172 0.9375 1.2109 1.8672 1.9297 2.7891 1.4414 1.8438 2.9062 3.7305 3.0859 4.7578 0.17969 1.0273-0.54688 3.3047-1.2695 5.5312-0.36328 1.1133-0.70703 2.2344-0.86719 3.2852-0.16016 1.0547-0.15625 2.082 0.34375 2.9492 0.5 0.86719 1.3867 1.3789 2.3789 1.7656 0.99219 0.38672 2.1328 0.65625 3.2773 0.89844 2.2891 0.48438 4.6211 0.99609 5.4219 1.668 0.80078 0.67188 1.7031 2.8828 2.582 5.0508 0.4375 1.0859 0.89844 2.1562 1.4531 3.0703 0.55469 0.91016 1.2109 1.6992 2.1523 2.043s1.957 0.16406 2.9688-0.17578c1.0117-0.33984 2.0508-0.87109 3.0859-1.4219 2.0664-1.0977 4.1797-2.2188 5.2188-2.2188 1.043 0 3.1602 1.1211 5.2266 2.2188 1.0312 0.55078 2.0742 1.0781 3.0859 1.4219 1.0117 0.33984 2.0156 0.51953 2.957 0.17578s1.6055-1.1289 2.1602-2.043c0.55469-0.91016 1.0156-1.9844 1.4531-3.0703 0.875-2.168 1.7734-4.3789 2.5703-5.0508 0.80078-0.67188 3.1328-1.1797 5.4219-1.668 1.1445-0.24219 2.2852-0.51172 3.2773-0.89844 0.99219-0.38672 1.8867-0.89844 2.3867-1.7656 0.5-0.86719 0.50391-1.8945 0.34766-2.9492-0.16016-1.0547-0.50391-2.1758-0.86719-3.2852-0.72266-2.2266-1.457-4.5039-1.2773-5.5312 0.17969-1.0273 1.6523-2.9141 3.0938-4.7578 0.71875-0.92188 1.4219-1.8516 1.9336-2.7891s0.86328-1.9062 0.69141-2.8945c-0.17578-0.98828-0.83984-1.7656-1.6406-2.4727-0.80078-0.70312-1.7852-1.3477-2.7734-1.9688-1.9805-1.2383-4-2.5078-4.5195-3.4102-0.51953-0.90234-0.61719-3.293-0.69531-5.6328-0.042969-1.168-0.10156-2.332-0.3125-3.3789s-0.55859-2.0117-1.3281-2.6562-1.7852-0.82031-2.8477-0.84766c-1.0664-0.027344-2.2266 0.11328-3.3867 0.27734-2.3164 0.32422-4.6875 0.64844-5.6641 0.29297-0.98437-0.35547-2.582-2.125-4.1484-3.8672-0.78125-0.86719-1.5781-1.7188-2.4102-2.3828-0.83594-0.66797-1.7305-1.1797-2.7305-1.1797zm0 1.4961c0.45703 0 1.082 0.28516 1.7891 0.85156 0.70703 0.5625 1.4688 1.375 2.2344 2.2266 1.5352 1.707 2.9883 3.6289 4.7461 4.2695 1.7617 0.64062 4.1133 0.10156 6.3867-0.21875 1.1367-0.16016 2.2422-0.29297 3.1445-0.26953 0.90234 0.023437 1.5664 0.21094 1.9141 0.50391 0.34766 0.29297 0.64453 0.91406 0.82422 1.7969 0.17969 0.88672 0.24609 1.9883 0.28516 3.1367 0.078125 2.293-0.046875 4.707 0.89062 6.3281 0.9375 1.625 3.0859 2.7188 5.0352 3.9336 0.97266 0.60938 1.8945 1.2266 2.5703 1.8242 0.67578 0.59766 1.0703 1.1562 1.1484 1.6055 0.078125 0.44922-0.097656 1.125-0.52734 1.918-0.43359 0.79297-1.0938 1.6836-1.8008 2.5898-1.4141 1.8086-3.0547 3.5664-3.3789 5.4141-0.32422 1.8477 0.60938 4.0703 1.3203 6.2539 0.35547 1.0938 0.67188 2.1562 0.80469 3.0508 0.13672 0.89453 0.066406 1.582-0.16016 1.9727-0.22656 0.39453-0.78906 0.78906-1.6328 1.1211-0.83984 0.32812-1.918 0.58203-3.043 0.82422-2.2461 0.47656-4.6328 0.78125-6.0703 1.9844s-2.1484 3.5117-3.0078 5.6406c-0.42969 1.0664-0.86719 2.0781-1.3398 2.8477-0.46875 0.76953-0.96484 1.2578-1.3945 1.4141-0.42969 0.15625-1.1094 0.10156-1.9688-0.18359-0.85547-0.28906-1.8516-0.78906-2.8633-1.3281-2.0273-1.0781-4.0508-2.3867-5.9258-2.3867s-3.8984 1.3086-5.9258 2.3867c-1.0156 0.53906-2.0039 1.0391-2.8594 1.3281-0.85547 0.28906-1.5469 0.33984-1.9766 0.18359s-0.91797-0.64062-1.3867-1.4141c-0.44922-0.77344-0.89453-1.7852-1.3242-2.8516-0.86328-2.1289-1.5664-4.4375-3-5.6406-1.4375-1.2031-3.832-1.5078-6.0781-1.9844-1.125-0.23828-2.2031-0.49219-3.043-0.82422-0.83984-0.32812-1.4023-0.72266-1.6289-1.1172-0.23047-0.39453-0.28906-1.082-0.15234-1.9727 0.13281-0.89453 0.45312-1.9609 0.80859-3.0508 0.70703-2.1875 1.6406-4.4102 1.3164-6.2539-0.32422-1.8477-1.9648-3.6055-3.3789-5.4141-0.70703-0.90625-1.3672-1.7969-1.7969-2.5898-0.43359-0.79297-0.60938-1.4688-0.53125-1.918 0.078124-0.44531 0.46484-1.0078 1.1445-1.6055 0.67578-0.59375 1.6055-1.2148 2.582-1.8242 1.9453-1.2148 4.0938-2.3086 5.0312-3.9297 0.9375-1.625 0.8125-4.0391 0.89453-6.332 0.039063-1.1484 0.10547-2.25 0.28516-3.1367 0.17578-0.88281 0.47266-1.5039 0.82422-1.7969 0.34766-0.29297 1.0117-0.48047 1.9141-0.50391 0.90234-0.023438 2.0039 0.10937 3.1445 0.26953 2.2734 0.32031 4.6172 0.85938 6.3789 0.21484 1.7617-0.64062 3.2188-2.5625 4.7578-4.2695 0.76562-0.85156 1.5273-1.6602 2.2344-2.2266 0.70703-0.5625 1.3281-0.84766 1.7852-0.84766zm0 10.348c-11.648 0-21.105 9.457-21.105 21.105 0 11.648 9.457 21.113 21.105 21.113s21.109-9.4609 21.109-21.113c0-11.648-9.4609-21.105-21.109-21.105zm0 1.4961c10.84 0 19.613 8.7695 19.613 19.605 0 10.84-8.7734 19.613-19.613 19.613s-19.609-8.7734-19.609-19.613c0-10.84 8.7695-19.605 19.609-19.605zm5.0742 3.418c-0.30078 0.019531-0.5625 0.21875-0.66406 0.50391-0.13281 0.39062 0.074219 0.81641 0.46875 0.95312 2.6211 0.90625 5.0156 2.543 6.8477 4.6445 0.27344 0.30859 0.74609 0.34375 1.0586 0.074218 0.14844-0.13281 0.24219-0.31641 0.25781-0.51953 0.011719-0.19922-0.054688-0.39453-0.18359-0.54297-2.0078-2.2969-4.6133-4.0781-7.4961-5.0742-0.09375-0.03125-0.19141-0.046875-0.28906-0.039063zm9.0469 7.5312c-0.097656 0.015625-0.19141 0.046875-0.27344 0.097657-0.17188 0.10156-0.29688 0.26953-0.34766 0.46484-0.046875 0.19141-0.015625 0.39844 0.089844 0.57031 0.41406 0.6875 0.76172 1.4062 1.0391 2.1406 0.14844 0.38672 0.57812 0.58203 0.96875 0.43359 0.38672-0.14844 0.58203-0.57812 0.43359-0.96484-0.30859-0.82031-0.69531-1.6172-1.1602-2.3828v-0.003906c-0.10156-0.16797-0.26562-0.29297-0.45703-0.33984-0.09375-0.023437-0.19531-0.03125-0.28906-0.015625z" />
    <!-- <text x="0.0" y="117.5" font-size="5.0" font-weight="bold" font-family="Arbeit Regular,
Helvetica, Arial-Unicode, Arial, Sans-serif" fill="#000000">Created by iOktavDesign</text><text
x="0.0" y="122.5" font-size="5.0" font-weight="bold" font-family="Arbeit Regular, Helvetica,
Arial-Unicode, Arial, Sans-serif" fill="#000000">from Noun Project</text> -->
</svg>